<svg width="200" height="200" viewBox="0 0 1484 575" fill="none" xmlns="http://www.w3.org/2000/svg">
<path d="M377.665 133.547C392.569 219.662 414.633 304.254 428.27 390.62C437.355 448.157 446.488 507.951 446.488 566.276C446.488 578.394 440.845 572.867 432.993 567.851C391.867 541.576 345.364 524.423 298.721 510.723C201.515 482.173 100.684 479.46 2.51247 457.644C-5.1366 455.944 15.4804 452.804 17.3566 452.471C80.8561 441.205 144.278 428.992 207.632 416.935C540.991 353.493 864.035 258.319 1189.37 163.235C1274.73 138.288 1364.47 119.464 1447.34 86.7651C1454.7 83.8625 1469.8 76.869 1454.54 76.869" stroke="white" stroke-linecap="round" stroke-linejoin="round"/>
<path d="M466.73 263.096C439.615 263.096 413.24 275.836 390.71 291.434C345.83 322.505 415.597 333.68 441.09 336.867C456.94 338.848 490.994 353.004 503.165 335.067C518.878 311.912 498.981 262.563 488.321 241.954C485.041 235.612 450.893 170.207 445.588 198.321C437.11 243.255 449.637 277.126 483.598 307.853C490.343 313.955 532.642 353.832 545.224 351.036C556.584 348.512 549.07 259.42 547.248 250.051C542.089 223.519 536.565 196.386 527.456 170.882C525.317 164.894 515.76 140.094 515.76 161.436C515.76 206.562 529.443 247.105 551.072 286.037C554.953 293.023 563.891 315.817 563.891 295.258C563.891 261.33 570.994 227.154 565.466 193.373C560.19 161.13 553.08 169.705 558.269 194.498C560.233 203.884 589.558 334.281 603.476 329.22C610.738 326.579 608.424 262.644 608.424 252.75C608.424 229.584 608.424 206.418 608.424 183.252C608.424 172.601 607.371 165.355 609.324 180.778C614.294 220.041 626.84 256.06 640.811 292.784C659.316 341.424 652.922 247.258 652.057 234.757C650.463 211.734 647.588 188.346 643.06 165.709C640.581 153.314 640.559 156.428 640.811 167.283C641.838 211.422 655.289 266.179 677.247 304.929C686.333 320.964 685.245 302.113 685.569 294.358C686.599 269.635 689.216 245.147 689.392 220.362C689.507 204.169 689.392 155.588 689.392 171.782C689.392 183.442 693.403 193.596 697.489 204.394C706.351 227.814 721.304 270.322 743.371 283.563C749.791 287.415 749.917 201.056 749.668 196.522C748.686 178.592 747.842 152.146 737.973 136.246C734.483 130.623 740.198 165.211 740.672 166.609C757.166 215.305 780.992 263.684 826.813 290.76C830.134 292.722 850.111 305.154 854.477 297.732C858.049 291.66 850.382 287.953 845.93 287.611C818.329 285.488 789.962 294.884 763.613 301.331C697.32 317.551 631.223 334.267 565.241 351.711C443.886 383.793 321.5 412.834 199.085 440.551C192.38 442.069 131.049 465.291 155.002 449.322" fill="white" stroke-linecap="round" stroke-linejoin="round"/>
<path d="M766.312 190.224C774.529 215.391 787.841 251.231 797.799 206.418C802.96 183.195 800.068 149.809 796 127.249C792.095 105.595 753.71 8.4648 731.675 69.6718C710.23 129.242 713.335 230.536 750.568 282.663C762.777 299.756 780.031 316.18 801.848 318.874C825.331 321.773 836.255 299.477 845.93 281.988C886.17 209.247 903.447 116.856 893.387 34.1358C892.096 23.5205 885.383 -7.0148 883.715 3.54783C879.846 28.0552 877.722 53.4666 876.518 78.2184C874.329 123.229 876.834 256.658 887.764 212.94C892.461 194.153 891.611 173.385 892.712 154.238C894.66 120.336 899.532 86.5548 899.909 52.5785C899.959 48.1268 897.912 21.0579 902.383 40.4333C910.491 75.5696 921.827 109.729 931.846 144.342C937.299 163.179 941.073 185.972 950.739 203.269C951.611 204.83 956.527 174.776 956.587 169.982C956.918 143.481 957.059 116.855 956.362 90.3636C955.189 45.7838 957.305 75.5597 962.434 99.8099C967.755 124.964 975.265 149.412 984.026 173.581C985.214 176.859 1002.65 226.707 1004.27 212.715C1007.39 185.66 1005.68 156.904 1004.94 129.723C1004.5 113.197 996.707 64.4419 1001.57 80.2426C1011.51 112.56 1029.8 148.127 1047.9 176.28C1056.76 190.054 1054.9 174.46 1055.77 164.36C1058.32 134.788 1053.59 103.305 1058.25 74.17C1061.71 52.5105 1081.93 149.655 1092.43 130.398C1097.39 121.317 1087 50.3951 1104.35 77.0939C1114.67 92.971 1187.34 205.027 1203.09 190.674C1217.88 177.196 1204.15 126.095 1200.84 110.831C1193.49 76.8864 1182.99 42.2347 1165.75 11.8695C1155.54 -6.12316 1159.57 15.9246 1161.71 22.8902C1174.13 63.3713 1202.22 104.358 1232.33 133.547C1252.42 153.023 1275.9 172.223 1303.18 180.103C1314.4 183.347 1350.22 196.368 1345.46 172.007C1339.73 142.721 1318.91 112.76 1300.7 89.9138C1288.28 74.333 1274.09 60.4376 1258.87 47.6305C1253.91 43.461 1237.42 34.1217 1233.23 27.8383C1222.76 12.1293 1265.74 47.4421 1283.38 54.1529C1308.22 63.5966 1335.5 68.7721 1362.1 68.7721C1378.51 68.7721 1330.55 77.7923 1314.65 81.817C1180.74 115.704 1044.98 141.863 911.155 176.28C766.393 213.509 623.766 259.113 483.598 311.002C419.375 334.777 346.508 362.441 293.548 407.039C249.904 443.791 352.466 433.61 365.07 432.679C491.783 423.317 615.612 378.781 733.924 335.517C838.424 297.305 940.481 252.792 1044.53 213.39C1054.78 209.509 1065.09 205.811 1075.34 201.92C1082.87 199.06 1095.63 199.885 1097.38 192.024C1097.76 190.334 1093.93 191.406 1092.21 191.574C1080.42 192.723 1062.26 197.982 1052.62 200.57C837.833 258.232 620.415 301.17 404.654 354.41C42.6484 443.736 1126.29 165.585 1482.88 56.6269" fill="white" stroke-linecap="round" stroke-linejoin="round"/>
</svg>
